<svg width="145" height="38" fill="none" xmlns="http://www.w3.org/2000/svg"><path d="M35.768 31V4.89H46.12c1.765 0 3.21.356 4.334 1.069 1.137.701 1.977 1.602 2.52 2.702.557 1.1.835 2.236.835 3.409 0 1.438-.345 2.659-1.034 3.662a4.962 4.962 0 01-2.774 2.031v-.906c1.644.374 2.889 1.154 3.735 2.339.858 1.184 1.288 2.532 1.288 4.043 0 1.548-.297 2.901-.889 4.062-.592 1.16-1.475 2.067-2.647 2.72-1.16.653-2.6.979-4.316.979H35.768zm4.424-4.116h6.437c.762 0 1.445-.151 2.05-.453a3.515 3.515 0 001.413-1.306c.351-.568.526-1.239.526-2.013 0-.7-.15-1.33-.453-1.885a3.32 3.32 0 00-1.324-1.324c-.58-.339-1.275-.508-2.085-.508h-6.564v7.489zm0-11.569h5.875c.629 0 1.19-.12 1.686-.362a2.798 2.798 0 001.18-1.07c.29-.472.434-1.052.434-1.74 0-.908-.29-1.663-.87-2.267-.58-.605-1.39-.907-2.43-.907h-5.875v6.346zm27.103 16.229c-1.958 0-3.669-.441-5.131-1.324-1.463-.882-2.6-2.097-3.41-3.644-.797-1.56-1.196-3.349-1.196-5.368 0-2.055.411-3.856 1.233-5.403.822-1.547 1.964-2.756 3.427-3.627 1.463-.87 3.155-1.305 5.077-1.305 1.97 0 3.687.441 5.15 1.324 1.463.882 2.599 2.103 3.409 3.662.81 1.548 1.215 3.33 1.215 5.35 0 2.03-.411 3.825-1.233 5.385-.81 1.547-1.947 2.762-3.41 3.644-1.462.87-3.172 1.306-5.13 1.306zm0-4.098c1.741 0 3.034-.58 3.88-1.74.847-1.161 1.27-2.66 1.27-4.498 0-1.897-.43-3.409-1.287-4.533-.859-1.136-2.146-1.704-3.863-1.704-1.172 0-2.14.266-2.901.798-.75.52-1.306 1.25-1.668 2.194-.363.93-.544 2.012-.544 3.245 0 1.898.429 3.415 1.287 4.552.87 1.124 2.146 1.686 3.826 1.686zM81.427 31V4.345h4.37V31h-4.37zm17.652.544c-1.8 0-3.372-.453-4.714-1.36-1.342-.907-2.381-2.14-3.119-3.699-.737-1.56-1.106-3.318-1.106-5.277 0-1.982.369-3.747 1.106-5.294.75-1.56 1.807-2.787 3.173-3.681 1.366-.907 2.974-1.36 4.824-1.36 1.861 0 3.421.453 4.678 1.36 1.269.894 2.23 2.121 2.883 3.68.653 1.56.979 3.325.979 5.295 0 1.947-.326 3.706-.979 5.277-.653 1.56-1.626 2.792-2.919 3.699-1.294.907-2.896 1.36-4.806 1.36zm.671-3.917c1.173 0 2.116-.266 2.829-.797.725-.544 1.251-1.3 1.578-2.267.338-.967.507-2.085.507-3.355 0-1.281-.169-2.4-.507-3.354-.327-.967-.841-1.717-1.542-2.249-.701-.543-1.608-.816-2.72-.816-1.172 0-2.14.29-2.9.87-.762.569-1.325 1.343-1.687 2.322-.363.967-.544 2.043-.544 3.227 0 1.197.175 2.285.526 3.264.362.967.912 1.735 1.65 2.303.737.568 1.674.852 2.81.852zM104.664 31V17.256h-.544V4.889h4.406V31h-3.862zm17.596.544c-1.959 0-3.669-.441-5.132-1.324-1.463-.882-2.599-2.097-3.409-3.644-.798-1.56-1.197-3.349-1.197-5.368 0-2.055.411-3.856 1.233-5.403.822-1.547 1.965-2.756 3.428-3.627 1.462-.87 3.155-1.305 5.077-1.305 1.97 0 3.687.441 5.149 1.324 1.463.882 2.599 2.103 3.409 3.662.81 1.548 1.215 3.33 1.215 5.35 0 2.03-.411 3.825-1.233 5.385-.81 1.547-1.946 2.762-3.409 3.644-1.463.87-3.173 1.306-5.131 1.306zm0-4.098c1.74 0 3.034-.58 3.88-1.74.846-1.161 1.269-2.66 1.269-4.498 0-1.897-.429-3.409-1.287-4.533-.858-1.136-2.146-1.704-3.862-1.704-1.173 0-2.14.266-2.902.798-.749.52-1.305 1.25-1.668 2.194-.362.93-.544 2.012-.544 3.245 0 1.898.429 3.415 1.288 4.552.87 1.124 2.145 1.686 3.826 1.686zM0 17h14.318a8.842 8.842 0 110 17.684H0V17zM0 1.526h9.48a6.632 6.632 0 110 13.264H0V1.526z" fill="#0A2640"/></svg>