<svg width="147" height="38" fill="none" xmlns="http://www.w3.org/2000/svg"><g clip-path="url(#clip0_608_580)" fill="#0A2640"><path d="M9.16 3.166a.619.619 0 01.265-.834 14.969 14.969 0 0114.225.354.617.617 0 01.225.848l-7.121 12.221a.617.617 0 01-.535.307h-.016a.62.62 0 01-.534-.334L9.159 3.166zm6.677 16.155L9.327 6.757a.62.62 0 00-.832-.266 14.806 14.806 0 1013.62 26.294.62.62 0 00.264-.834l-6.542-12.63zm7.63 11.874l.05.1a.63.63 0 00.359.309c.064.02.131.03.198.024a.787.787 0 00.285-.061 6.86 6.86 0 00.656-.372 14 14 0 001.796-1.239h-3.988l.644 1.239zm-1.288-2.477h5.983c.384-.387.74-.8 1.065-1.239h-7.692l.644 1.239zm-1.276-2.478h9.203c.254-.397.481-.811.681-1.238H20.26l.644 1.238zm-1.288-2.477h11.718c.164-.404.305-.818.42-1.239H18.972l.644 1.24zm-1.288-2.477h13.736c.075-.409.137-.818.174-1.239H17.695l.632 1.239zm6.639-15.657a.575.575 0 00-.47-.061.595.595 0 00-.385.284l-.334.57h2.39c-.386-.285-.787-.55-1.201-.793zm2.7 2.032h-4.608l-.718 1.238h6.503c-.367-.436-.76-.85-1.177-1.238zm2.106 2.477h-8.163l-.718 1.239h9.636c-.223-.43-.476-.844-.755-1.239zm1.35 2.477h-10.95l-.718 1.239h12.151a11.66 11.66 0 00-.483-1.239zm.83 2.478H18.723l-.718 1.238h14.17c-.05-.417-.124-.83-.223-1.238zm.347 2.477H17.286l-.297.508a.599.599 0 00-.012.594l.074.137h15.272c.013-.124.013-.26.013-.384 0-.285-.013-.57-.037-.855z"/><path d="M8.875 5.88a.844.844 0 00-1.178-.346 15.708 15.708 0 0014.64 27.74.844.844 0 00.379-1.168l-6.92-13.113L8.876 5.88z"/></g><path d="M54.436 6.96c1.722 0 3.188.276 4.4.829 1.21.552 2.135 1.35 2.773 2.39.637 1.042.956 2.307.956 3.794 0 1.488-.319 2.752-.956 3.794-.638 1.041-1.562 1.838-2.774 2.39-1.211.553-2.677.83-4.399.83H50.26V28h-5.483V6.96h9.66zm-.86 9.914c1.147 0 2.008-.233 2.582-.701.595-.489.892-1.222.892-2.2 0-.977-.297-1.7-.892-2.167-.574-.49-1.435-.734-2.583-.734H50.26v5.802h3.315zM65.687 28V12.06h4.782l.223 3.444c.404-1.19 1-2.115 1.785-2.774.808-.659 1.828-.988 3.06-.988.405 0 .745.032 1.021.095.297.064.531.15.701.255l-.542 4.463a3.424 3.424 0 00-.829-.19 6.144 6.144 0 00-1.179-.096c-.637 0-1.233.138-1.785.414-.553.276-.999.69-1.34 1.243-.318.532-.477 1.212-.477 2.04V28h-5.42zm21.29.319c-1.764 0-3.294-.33-4.59-.988a7.07 7.07 0 01-2.965-2.838c-.702-1.232-1.052-2.72-1.052-4.463 0-1.742.35-3.23 1.052-4.463a7.116 7.116 0 012.933-2.837c1.275-.659 2.73-.988 4.367-.988 1.679 0 3.103.33 4.272.988 1.19.638 2.093 1.53 2.71 2.678.616 1.126.924 2.423.924 3.89 0 .382-.01.764-.032 1.147a9.008 9.008 0 01-.096.956H81.877v-2.9H92.11l-2.582.987c0-1.275-.234-2.252-.701-2.933-.447-.68-1.148-1.02-2.104-1.02-.68 0-1.265.16-1.754.479-.467.318-.828.818-1.083 1.498-.234.68-.351 1.551-.351 2.614 0 1.041.138 1.891.414 2.55.277.638.67 1.105 1.18 1.403.51.276 1.126.414 1.849.414.808 0 1.445-.16 1.913-.478a2.83 2.83 0 001.084-1.339l4.335 1.435a5.09 5.09 0 01-1.562 2.327c-.723.616-1.594 1.084-2.614 1.403-.999.318-2.051.478-3.156.478zm17.377 0c-1.594 0-3.082-.255-4.463-.765-1.36-.532-2.486-1.286-3.38-2.264l2.551-2.996c.531.68 1.233 1.254 2.104 1.721.893.447 1.881.67 2.965.67.659 0 1.201-.096 1.626-.287.425-.192.637-.49.637-.893 0-.297-.106-.531-.318-.701-.213-.191-.638-.35-1.276-.478l-2.231-.447c-1.998-.404-3.422-.999-4.272-1.785-.829-.808-1.243-1.86-1.243-3.156 0-.871.265-1.7.797-2.486.531-.808 1.35-1.456 2.454-1.945 1.106-.51 2.519-.765 4.24-.765 1.616 0 3.039.234 4.272.701 1.233.468 2.21 1.148 2.933 2.04l-2.582 2.933c-.51-.637-1.169-1.137-1.977-1.498-.807-.361-1.615-.542-2.423-.542-.51 0-.945.053-1.307.16-.34.084-.595.212-.765.382a.865.865 0 00-.255.637c0 .277.128.521.383.734.276.191.776.361 1.498.51l2.901.574c1.637.297 2.816.84 3.539 1.625.722.787 1.084 1.732 1.084 2.838 0 1.041-.277 1.976-.829 2.805-.553.829-1.382 1.488-2.487 1.977-1.105.467-2.497.7-4.176.7zM121.32 6.992v15.334c0 .765.181 1.317.542 1.657.383.32.903.479 1.562.479.51 0 .946-.054 1.307-.16a3.34 3.34 0 001.02-.542l.574 3.347c-.531.383-1.201.68-2.008.893a9.737 9.737 0 01-2.487.319c-1.211 0-2.263-.17-3.156-.51-.871-.34-1.551-.882-2.04-1.626-.468-.744-.712-1.732-.733-2.965V8.49l5.419-1.498zm4.75 5.069v3.857h-12.91V12.06h12.911zm10.09-.32c1.679 0 3.146.33 4.4.99a6.821 6.821 0 012.964 2.836c.723 1.233 1.084 2.72 1.084 4.463 0 1.743-.361 3.241-1.084 4.495a7.067 7.067 0 01-2.964 2.837c-1.254.638-2.721.957-4.4.957-1.636 0-3.092-.319-4.367-.957a7.28 7.28 0 01-2.997-2.837c-.701-1.254-1.052-2.752-1.052-4.495 0-1.742.351-3.23 1.052-4.463a7.019 7.019 0 012.997-2.837c1.275-.659 2.731-.988 4.367-.988zm0 3.858c-.616 0-1.147.149-1.594.447-.446.297-.786.775-1.02 1.434-.233.659-.35 1.509-.35 2.55 0 1.042.117 1.892.35 2.55.234.638.574 1.116 1.02 1.435.447.298.978.447 1.594.447.638 0 1.18-.15 1.626-.447.446-.319.787-.797 1.02-1.434.234-.66.351-1.51.351-2.55 0-1.042-.117-1.892-.351-2.551-.233-.659-.574-1.137-1.02-1.434-.446-.298-.988-.447-1.626-.447z" fill="#0A2640"/><defs><clipPath id="clip0_608_580"><path fill="#fff" transform="translate(-.191 .154)" d="M0 0h32.745v34.835H0z"/></clipPath></defs></svg>