<svg width="147" height="38" viewBox="0 0 147 38" fill="none" xmlns="http://www.w3.org/2000/svg">
<g clip-path="url(#clip0_608_580)">
<path d="M9.15986 3.16591C9.12247 3.09377 9.09966 3.01496 9.09273 2.934C9.0858 2.85304 9.0949 2.7715 9.11949 2.69406C9.14408 2.61661 9.18369 2.54477 9.23606 2.48263C9.28842 2.4205 9.35252 2.36929 9.42468 2.33193C11.6389 1.20594 14.0986 0.648712 16.5819 0.710468C19.0653 0.772225 21.4942 1.45103 23.6497 2.68569C23.7204 2.72635 23.7824 2.7806 23.832 2.84533C23.8817 2.91005 23.918 2.98396 23.9389 3.06279C23.9598 3.14163 23.9649 3.22382 23.9539 3.30464C23.9429 3.38545 23.916 3.46329 23.8748 3.53366L16.7537 15.755C16.6994 15.8485 16.6214 15.9262 16.5275 15.9801C16.4337 16.034 16.3273 16.0623 16.2191 16.0621H16.2034C16.0925 16.0592 15.9845 16.0266 15.8905 15.9678C15.7965 15.909 15.7199 15.8261 15.6688 15.7277L9.15986 3.16591ZM15.8371 19.3215V19.3203L9.32794 6.75846C9.25234 6.61303 9.12228 6.50342 8.96615 6.45355C8.81001 6.40367 8.64049 6.4176 8.49458 6.49228C6.75981 7.38178 5.21779 8.60513 3.95701 10.0921C2.69624 11.5791 1.74153 13.3004 1.1477 15.1573C0.553858 17.0142 0.332581 18.97 0.496563 20.9127C0.660545 22.8553 1.20656 24.7464 2.10326 26.4774C2.99997 28.2085 4.22971 29.7454 5.72191 31C7.21411 32.2546 8.93939 33.2021 10.7987 33.7883C12.6581 34.3744 14.6148 34.5875 16.5567 34.4155C18.4987 34.2434 20.3875 33.6895 22.1148 32.7857C22.2599 32.7097 22.369 32.5794 22.4184 32.4233C22.4678 32.2671 22.4535 32.0978 22.3785 31.9522L15.8371 19.3215ZM23.4672 31.195L23.5167 31.2941C23.5915 31.4402 23.7204 31.5513 23.8759 31.6037C23.9397 31.6249 24.007 31.6333 24.0741 31.6285C24.1721 31.6258 24.2687 31.6048 24.359 31.5666C24.5845 31.4549 24.8036 31.3308 25.0155 31.195C25.6455 30.8295 26.246 30.4153 26.8115 29.9564H22.8231L23.4672 31.195ZM22.179 28.7177H28.1616C28.5463 28.3312 28.9023 27.9172 29.2268 27.4791H21.5349L22.179 28.7177ZM20.9032 26.2404H30.1063C30.36 25.8428 30.5875 25.429 30.7875 25.0018H20.2591L20.9032 26.2404ZM19.615 23.7631H31.3325C31.4969 23.3588 31.6375 22.9452 31.7537 22.5245H18.9709L19.615 23.7631ZM18.3268 21.2859H32.0633C32.1376 20.8771 32.1996 20.4684 32.2367 20.0472H17.6951L18.3268 21.2859ZM24.9659 5.62944C24.8964 5.58621 24.8184 5.55832 24.7373 5.54764C24.6561 5.53696 24.5736 5.54374 24.4952 5.56751C24.415 5.58583 24.3394 5.62062 24.2733 5.66965C24.2072 5.71869 24.152 5.78092 24.1112 5.8524L23.7768 6.42217H26.1674C25.7814 6.13663 25.3803 5.87201 24.9659 5.62944ZM27.6661 7.66081H23.0584L22.34 8.89945H28.8429C28.4764 8.46284 28.0834 8.04918 27.6661 7.66081ZM29.7718 10.1381H21.6092L20.8908 11.3767H30.5274C30.3039 10.9472 30.0515 10.5334 29.7718 10.1381ZM31.122 12.6154H20.1724L19.454 13.854H31.605C31.4677 13.4323 31.3064 13.0187 31.122 12.6154ZM31.9518 15.0927H18.7232L18.0047 16.3313H32.1748C32.1256 15.9143 32.0512 15.5006 31.9518 15.0927ZM32.2987 17.5699H17.2863L16.9891 18.0778C16.9354 18.1672 16.906 18.2691 16.9038 18.3734C16.9017 18.4777 16.9268 18.5807 16.9767 18.6723L17.051 18.8086H32.3234C32.3358 18.6847 32.3358 18.5485 32.3358 18.4246C32.3358 18.1397 32.3234 17.8548 32.2987 17.5699Z" fill="#0A2640"/>
<path d="M8.87537 5.88007C8.64832 5.44985 8.11394 5.28305 7.69711 5.53383C4.39724 7.51919 1.93185 10.6551 0.788437 14.354C-0.441932 18.3341 -0.0408055 22.64 1.90357 26.3244C3.84795 30.0087 7.17631 32.7698 11.1564 34.0002C14.8553 35.1436 18.8354 34.878 22.3367 33.2742C22.7789 33.0716 22.9428 32.5363 22.7157 32.1061L15.7956 18.9931L8.87537 5.88007Z" fill="#0A2640"/>
</g>
<path d="M54.4361 6.96001C56.1576 6.96001 57.624 7.23629 58.8354 7.78886C60.0468 8.34142 60.9713 9.13839 61.6089 10.1798C62.2464 11.2211 62.5652 12.4857 62.5652 13.9733C62.5652 15.461 62.2464 16.7255 61.6089 17.7669C60.9713 18.8083 60.0468 19.6053 58.8354 20.1578C57.624 20.7104 56.1576 20.9867 54.4361 20.9867H50.26V28H44.7769V6.96001H54.4361ZM53.5754 16.8743C54.723 16.8743 55.5838 16.6405 56.1576 16.173C56.7527 15.6842 57.0502 14.951 57.0502 13.9733C57.0502 12.9957 56.7527 12.2731 56.1576 11.8056C55.5838 11.3168 54.723 11.0724 53.5754 11.0724H50.26V16.8743H53.5754ZM65.6883 28V12.0606H70.4702L70.6933 15.5035C71.0971 14.3134 71.6922 13.3889 72.4785 12.7301C73.2861 12.0712 74.3062 11.7418 75.5389 11.7418C75.9427 11.7418 76.2827 11.7737 76.559 11.8375C76.8565 11.9012 77.0903 11.9862 77.2603 12.0925L76.7184 16.5555C76.5059 16.4705 76.2296 16.4068 75.8895 16.3642C75.5708 16.3005 75.1776 16.2686 74.71 16.2686C74.0725 16.2686 73.4774 16.4068 72.9248 16.683C72.3723 16.9593 71.926 17.3737 71.5859 17.9263C71.2671 18.4576 71.1077 19.1377 71.1077 19.9665V28H65.6883ZM86.9779 28.3188C85.2139 28.3188 83.6837 27.9894 82.3873 27.3305C81.1122 26.6717 80.1239 25.726 79.4226 24.4933C78.7213 23.2607 78.3706 21.773 78.3706 20.0303C78.3706 18.2876 78.7213 16.7999 79.4226 15.5673C80.1239 14.3346 81.1016 13.3889 82.3555 12.7301C83.6306 12.0712 85.0864 11.7418 86.7228 11.7418C88.4018 11.7418 89.8257 12.0712 90.9946 12.7301C92.1847 13.3676 93.088 14.2602 93.7043 15.4079C94.3206 16.5343 94.6288 17.8307 94.6288 19.2971C94.6288 19.6796 94.6182 20.0622 94.5969 20.4447C94.5757 20.8273 94.5438 21.1461 94.5013 21.4011H81.8773V18.5001H92.1104L89.5282 19.4884C89.5282 18.2132 89.2944 17.2356 88.8268 16.5555C88.3805 15.8754 87.6792 15.5354 86.7228 15.5354C86.0428 15.5354 85.4583 15.6948 84.9695 16.0136C84.502 16.3324 84.1407 16.8318 83.8856 17.5119C83.6519 18.192 83.535 19.0633 83.535 20.1259C83.535 21.1673 83.6731 22.0174 83.9494 22.6762C84.2257 23.3138 84.6188 23.7814 85.1289 24.0789C85.639 24.3552 86.2553 24.4933 86.9779 24.4933C87.7855 24.4933 88.4231 24.3339 88.8906 24.0152C89.3794 23.6964 89.7407 23.2501 89.9745 22.6762L94.31 24.1108C94.0125 25.0246 93.4918 25.8004 92.7479 26.4379C92.0254 27.0543 91.154 27.5218 90.1339 27.8406C89.135 28.1594 88.083 28.3188 86.9779 28.3188ZM104.355 28.3188C102.761 28.3188 101.273 28.0638 99.892 27.5537C98.5319 27.0224 97.4055 26.2679 96.5129 25.2903L99.0632 22.2937C99.5945 22.9738 100.296 23.5476 101.167 24.0152C102.06 24.4615 103.048 24.6846 104.132 24.6846C104.791 24.6846 105.333 24.589 105.758 24.3977C106.183 24.2064 106.395 23.9089 106.395 23.5051C106.395 23.2076 106.289 22.9738 106.077 22.8038C105.864 22.6125 105.439 22.4531 104.801 22.3256L102.57 21.8793C100.572 21.4755 99.1482 20.8804 98.2981 20.0941C97.4692 19.2865 97.0548 18.2345 97.0548 16.9381C97.0548 16.0667 97.3205 15.2379 97.8518 14.4515C98.3831 13.6439 99.2013 12.9957 100.306 12.5069C101.412 11.9969 102.825 11.7418 104.546 11.7418C106.162 11.7418 107.585 11.9756 108.818 12.4432C110.051 12.9107 111.028 13.5908 111.751 14.4834L109.169 17.4162C108.659 16.7787 108 16.2792 107.192 15.9179C106.385 15.5567 105.577 15.376 104.769 15.376C104.259 15.376 103.824 15.4291 103.462 15.5354C103.122 15.6204 102.867 15.7479 102.697 15.9179C102.527 16.088 102.442 16.3005 102.442 16.5555C102.442 16.8318 102.57 17.0762 102.825 17.2887C103.101 17.48 103.601 17.65 104.323 17.7988L107.224 18.3726C108.861 18.6701 110.04 19.2121 110.763 19.9984C111.485 20.7848 111.847 21.7305 111.847 22.8356C111.847 23.877 111.57 24.8121 111.018 25.641C110.465 26.4698 109.636 27.1286 108.531 27.6175C107.426 28.085 106.034 28.3188 104.355 28.3188ZM121.321 6.99189V22.3256C121.321 23.0907 121.502 23.6432 121.863 23.9833C122.246 24.3021 122.766 24.4615 123.425 24.4615C123.935 24.4615 124.371 24.4083 124.732 24.3021C125.115 24.1745 125.455 23.9939 125.752 23.7601L126.326 27.1074C125.795 27.4899 125.125 27.7875 124.318 28C123.51 28.2125 122.681 28.3188 121.831 28.3188C120.62 28.3188 119.568 28.1488 118.675 27.8087C117.804 27.4687 117.124 26.9267 116.635 26.1829C116.167 25.4391 115.923 24.4508 115.902 23.2182V8.49019L121.321 6.99189ZM126.071 12.0606V15.9179H113.16V12.0606H126.071ZM136.161 11.7418C137.84 11.7418 139.307 12.0712 140.561 12.7301C141.836 13.3676 142.824 14.3134 143.525 15.5673C144.248 16.7999 144.609 18.2876 144.609 20.0303C144.609 21.773 144.248 23.2713 143.525 24.5252C142.824 25.7579 141.836 26.7036 140.561 27.3624C139.307 28 137.84 28.3188 136.161 28.3188C134.525 28.3188 133.069 28 131.794 27.3624C130.519 26.7036 129.52 25.7579 128.797 24.5252C128.096 23.2713 127.745 21.773 127.745 20.0303C127.745 18.2876 128.096 16.7999 128.797 15.5673C129.52 14.3134 130.519 13.3676 131.794 12.7301C133.069 12.0712 134.525 11.7418 136.161 11.7418ZM136.161 15.5992C135.545 15.5992 135.014 15.7479 134.567 16.0455C134.121 16.343 133.781 16.8212 133.547 17.48C133.314 18.1388 133.197 18.9889 133.197 20.0303C133.197 21.0717 133.314 21.9218 133.547 22.5806C133.781 23.2182 134.121 23.6964 134.567 24.0152C135.014 24.3127 135.545 24.4615 136.161 24.4615C136.799 24.4615 137.341 24.3127 137.787 24.0152C138.233 23.6964 138.574 23.2182 138.807 22.5806C139.041 21.9218 139.158 21.0717 139.158 20.0303C139.158 18.9889 139.041 18.1388 138.807 17.48C138.574 16.8212 138.233 16.343 137.787 16.0455C137.341 15.7479 136.799 15.5992 136.161 15.5992Z" fill="#0A2640"/>
<defs>
<clipPath id="clip0_608_580">
<rect width="32.745" height="34.8351" fill="white" transform="translate(-0.191162 0.153778)"/>
</clipPath>
</defs>
</svg>
