<svg width="145" height="38" viewBox="0 0 145 38" fill="none" xmlns="http://www.w3.org/2000/svg">
<path d="M35.7678 31V4.88909H46.1215C47.8864 4.88909 49.331 5.2457 50.4552 5.95891C51.5915 6.66004 52.4316 7.56062 52.9756 8.66066C53.5317 9.76071 53.8097 10.897 53.8097 12.0696C53.8097 13.5081 53.4652 14.729 52.7762 15.7324C52.0992 16.7357 51.1745 17.4127 50.0019 17.7632V16.8566C51.6459 17.2313 52.891 18.011 53.7372 19.1957C54.5955 20.3804 55.0246 21.7282 55.0246 23.2393C55.0246 24.7866 54.7284 26.1405 54.1361 27.301C53.5438 28.4614 52.6613 29.3681 51.4888 30.0208C50.3283 30.6736 48.8898 31 47.1732 31H35.7678ZM40.1922 26.8839H46.6292C47.3908 26.8839 48.0738 26.7328 48.6782 26.4306C49.2826 26.1163 49.7541 25.6811 50.0925 25.125C50.4431 24.5569 50.6184 23.886 50.6184 23.1123C50.6184 22.4112 50.4673 21.7826 50.1651 21.2265C49.8629 20.6705 49.4216 20.2292 48.8414 19.9029C48.2612 19.5644 47.5661 19.3952 46.7562 19.3952H40.1922V26.8839ZM40.1922 15.3153H46.0671C46.6957 15.3153 47.2578 15.1944 47.7534 14.9527C48.2491 14.7109 48.6419 14.3543 48.9321 13.8828C49.2222 13.4114 49.3672 12.8312 49.3672 12.1421C49.3672 11.2355 49.0771 10.48 48.4969 9.87555C47.9166 9.27113 47.1067 8.96892 46.0671 8.96892H40.1922V15.3153ZM67.2953 31.544C65.3369 31.544 63.6264 31.1028 62.1637 30.2203C60.701 29.3378 59.5647 28.123 58.7548 26.5757C57.957 25.0162 57.5581 23.2272 57.5581 21.2084C57.5581 19.1534 57.9691 17.3522 58.7911 15.8049C59.6131 14.2576 60.7554 13.0487 62.2181 12.1784C63.6808 11.308 65.3732 10.8728 67.2953 10.8728C69.2657 10.8728 70.9822 11.3141 72.4449 12.1965C73.9076 13.079 75.0439 14.2999 75.8538 15.8593C76.6638 17.4066 77.0687 19.1896 77.0687 21.2084C77.0687 23.2393 76.6577 25.0344 75.8357 26.5938C75.0258 28.1411 73.8895 29.356 72.4268 30.2384C70.9641 31.1088 69.2536 31.544 67.2953 31.544ZM67.2953 27.446C69.036 27.446 70.3294 26.8658 71.1756 25.7053C72.0218 24.5448 72.4449 23.0458 72.4449 21.2084C72.4449 19.3105 72.0158 17.7995 71.1575 16.6753C70.2992 15.539 69.0118 14.9708 67.2953 14.9708C66.1227 14.9708 65.1556 15.2367 64.394 15.7686C63.6446 16.2884 63.0885 17.0198 62.7259 17.9627C62.3632 18.8935 62.1819 19.9754 62.1819 21.2084C62.1819 23.1063 62.611 24.6234 63.4693 25.7597C64.3396 26.8839 65.615 27.446 67.2953 27.446ZM81.4265 31V4.34511H85.7964V31H81.4265ZM99.0794 31.544C97.2782 31.544 95.7067 31.0907 94.3649 30.184C93.0231 29.2774 91.9835 28.0444 91.2461 26.485C90.5087 24.9256 90.14 23.1667 90.14 21.2084C90.14 19.2259 90.5087 17.461 91.2461 15.9137C91.9956 14.3543 93.0533 13.1273 94.4193 12.2328C95.7853 11.3262 97.3931 10.8728 99.2426 10.8728C101.104 10.8728 102.664 11.3262 103.921 12.2328C105.19 13.1273 106.151 14.3543 106.804 15.9137C107.457 17.4731 107.783 19.238 107.783 21.2084C107.783 23.1546 107.457 24.9135 106.804 26.485C106.151 28.0444 105.178 29.2774 103.885 30.184C102.591 31.0907 100.989 31.544 99.0794 31.544ZM99.7503 27.6273C100.923 27.6273 101.866 27.3614 102.579 26.8295C103.304 26.2855 103.83 25.53 104.157 24.5629C104.495 23.5959 104.664 22.4777 104.664 21.2084C104.664 19.927 104.495 18.8089 104.157 17.8539C103.83 16.8868 103.316 16.1373 102.615 15.6054C101.914 15.0615 101.007 14.7895 99.8954 14.7895C98.7228 14.7895 97.7557 15.0796 96.9942 15.6598C96.2326 16.228 95.6705 17.0017 95.3078 17.9808C94.9452 18.9479 94.7638 20.0237 94.7638 21.2084C94.7638 22.4052 94.9391 23.4931 95.2897 24.4723C95.6523 25.4393 96.2024 26.207 96.9398 26.7751C97.6771 27.3433 98.614 27.6273 99.7503 27.6273ZM104.664 31V17.2555H104.12V4.88909H108.526V31H104.664ZM122.26 31.544C120.301 31.544 118.591 31.1028 117.128 30.2203C115.665 29.3378 114.529 28.123 113.719 26.5757C112.921 25.0162 112.522 23.2272 112.522 21.2084C112.522 19.1534 112.933 17.3522 113.755 15.8049C114.577 14.2576 115.72 13.0487 117.183 12.1784C118.645 11.308 120.338 10.8728 122.26 10.8728C124.23 10.8728 125.947 11.3141 127.409 12.1965C128.872 13.079 130.008 14.2999 130.818 15.8593C131.628 17.4066 132.033 19.1896 132.033 21.2084C132.033 23.2393 131.622 25.0344 130.8 26.5938C129.99 28.1411 128.854 29.356 127.391 30.2384C125.928 31.1088 124.218 31.544 122.26 31.544ZM122.26 27.446C124 27.446 125.294 26.8658 126.14 25.7053C126.986 24.5448 127.409 23.0458 127.409 21.2084C127.409 19.3105 126.98 17.7995 126.122 16.6753C125.264 15.539 123.976 14.9708 122.26 14.9708C121.087 14.9708 120.12 15.2367 119.358 15.7686C118.609 16.2884 118.053 17.0198 117.69 17.9627C117.328 18.8935 117.146 19.9754 117.146 21.2084C117.146 23.1063 117.575 24.6234 118.434 25.7597C119.304 26.8839 120.579 27.446 122.26 27.446Z" fill="#0A2640"/>
<path d="M0 17.0001H14.3176C19.201 17.0001 23.1597 20.9588 23.1597 25.8422C23.1597 30.7256 19.201 34.6843 14.3176 34.6843H0V17.0001Z" fill="#0A2640"/>
<path d="M0 1.52637H9.47954C13.1421 1.52637 16.1111 4.49543 16.1111 8.15794C16.1111 11.8205 13.1421 14.7895 9.47954 14.7895H0V1.52637Z" fill="#0A2640"/>
</svg>
