<svg width="112" height="38" viewBox="0 0 112 38" fill="none" xmlns="http://www.w3.org/2000/svg">
<g clip-path="url(#clip0_604_1550)">
<g clip-path="url(#clip1_604_1550)">
<path d="M9.92451 3.16594C9.88712 3.0938 9.86431 3.01499 9.85738 2.93403C9.85045 2.85307 9.85954 2.77153 9.88414 2.69409C9.90873 2.61664 9.94834 2.5448 10.0007 2.48266C10.0531 2.42053 10.1172 2.36932 10.1893 2.33196C12.4036 1.20598 14.8632 0.648742 17.3466 0.710499C19.8299 0.772256 22.2588 1.45106 24.4144 2.68572C24.4851 2.72638 24.547 2.78063 24.5967 2.84536C24.6463 2.91008 24.6826 2.98399 24.7036 3.06282C24.7245 3.14166 24.7296 3.22385 24.7186 3.30467C24.7076 3.38548 24.6807 3.46332 24.6394 3.53369L17.5184 15.755C17.464 15.8486 17.386 15.9262 17.2922 15.9801C17.1983 16.0341 17.092 16.0623 16.9838 16.0622H16.968C16.8572 16.0592 16.7492 16.0266 16.6551 15.9678C16.5611 15.909 16.4846 15.8261 16.4334 15.7277L9.92451 3.16594ZM16.6018 19.3215V19.3203L10.0926 6.75849C10.017 6.61306 9.88693 6.50345 9.73079 6.45358C9.57466 6.4037 9.40514 6.41763 9.25923 6.49231C7.52446 7.38181 5.98244 8.60516 4.72166 10.0921C3.46088 11.5791 2.50618 13.3004 1.91234 15.1573C1.31851 17.0142 1.09723 18.9701 1.26121 20.9127C1.42519 22.8553 1.97121 24.7464 2.86791 26.4775C3.76462 28.2085 4.99436 29.7455 6.48656 31C7.97876 32.2546 9.70403 33.2022 11.5634 33.7883C13.4227 34.3744 15.3795 34.5875 17.3214 34.4155C19.2633 34.2434 21.1521 33.6896 22.8795 32.7857C23.0245 32.7097 23.1337 32.5794 23.1831 32.4233C23.2325 32.2672 23.2181 32.0978 23.1432 31.9522L16.6018 19.3215ZM24.2318 31.195L24.2813 31.2941C24.3562 31.4402 24.485 31.5513 24.6406 31.6038C24.7044 31.6249 24.7717 31.6333 24.8387 31.6285C24.9367 31.6258 25.0333 31.6048 25.1236 31.5666C25.3491 31.4549 25.5683 31.3308 25.7801 31.195C26.4101 30.8295 27.0106 30.4154 27.5761 29.9564H23.5877L24.2318 31.195ZM22.9436 28.7177H28.9263C29.3109 28.3312 29.6669 27.9173 29.9915 27.4791H22.2995L22.9436 28.7177ZM21.6678 26.2405H30.8709C31.1246 25.8428 31.3522 25.429 31.5522 25.0018H21.0237L21.6678 26.2405ZM20.3796 23.7632H32.0972C32.2615 23.3588 32.4021 22.9453 32.5183 22.5245H19.7355L20.3796 23.7632ZM19.0914 21.2859H32.828C32.9023 20.8771 32.9642 20.4684 33.0014 20.0473H18.4597L19.0914 21.2859ZM25.7306 5.62947C25.661 5.58624 25.5831 5.55835 25.5019 5.54767C25.4207 5.53699 25.3382 5.54377 25.2599 5.56754C25.1796 5.58586 25.1041 5.62065 25.038 5.66968C24.9719 5.71872 24.9167 5.78095 24.8759 5.85243L24.5415 6.4222H26.932C26.546 6.13666 26.1449 5.87204 25.7306 5.62947ZM28.4308 7.66084H23.823L23.1046 8.89948H29.6075C29.241 8.46287 28.8481 8.04921 28.4308 7.66084ZM30.5365 10.1381H22.3738L21.6554 11.3768H31.2921C31.0686 10.9472 30.8161 10.5334 30.5365 10.1381ZM31.8866 12.6154H20.937L20.2186 13.854H32.3697C32.2324 13.4323 32.0711 13.0187 31.8866 12.6154ZM32.7165 15.0927H19.4878L18.7694 16.3313H32.9394C32.8903 15.9143 32.8158 15.5007 32.7165 15.0927ZM33.0633 17.57H18.051L17.7537 18.0778C17.7 18.1673 17.6707 18.2692 17.6685 18.3734C17.6663 18.4777 17.6914 18.5808 17.7413 18.6724L17.8156 18.8086H33.0881C33.1005 18.6847 33.1005 18.5485 33.1005 18.4246C33.1005 18.1397 33.0881 17.8549 33.0633 17.57Z" fill="#0A2640"/>
<path d="M9.64002 5.88004C9.41297 5.44981 8.87859 5.28302 8.46176 5.5338C5.16189 7.51916 2.6965 10.6551 1.55309 14.3539C0.322716 18.3341 0.723843 22.6399 2.66822 26.3243C4.6126 30.0087 7.94096 32.7698 11.9211 34.0002C15.6199 35.1436 19.6001 34.8779 23.1013 33.2741C23.5436 33.0715 23.7074 32.5363 23.4804 32.106L16.5602 18.993L9.64002 5.88004Z" fill="#0A2640"/>
</g>
<path d="M55.2008 6.96001C56.9222 6.96001 58.3887 7.23629 59.6 7.78886C60.8114 8.34142 61.7359 9.13839 62.3735 10.1798C63.0111 11.2211 63.3299 12.4857 63.3299 13.9733C63.3299 15.461 63.0111 16.7255 62.3735 17.7669C61.7359 18.8083 60.8114 19.6053 59.6 20.1578C58.3887 20.7104 56.9222 20.9867 55.2008 20.9867H51.0247V28H45.5415V6.96001H55.2008ZM54.34 16.8743C55.4877 16.8743 56.3484 16.6405 56.9222 16.173C57.5173 15.6842 57.8148 14.951 57.8148 13.9733C57.8148 12.9957 57.5173 12.2731 56.9222 11.8056C56.3484 11.3168 55.4877 11.0724 54.34 11.0724H51.0247V16.8743H54.34ZM66.453 28V12.0606H71.2348L71.458 15.5035C71.8618 14.3134 72.4568 13.3889 73.2432 12.7301C74.0508 12.0712 75.0709 11.7418 76.3035 11.7418C76.7073 11.7418 77.0474 11.7737 77.3236 11.8375C77.6212 11.9012 77.855 11.9862 78.025 12.0925L77.483 16.5555C77.2705 16.4705 76.9942 16.4068 76.6542 16.3642C76.3354 16.3005 75.9422 16.2686 75.4747 16.2686C74.8371 16.2686 74.242 16.4068 73.6895 16.683C73.1369 16.9593 72.6906 17.3737 72.3506 17.9263C72.0318 18.4576 71.8724 19.1377 71.8724 19.9665V28H66.453ZM87.7425 28.3188C85.9786 28.3188 84.4484 27.9894 83.152 27.3305C81.8768 26.6717 80.8886 25.726 80.1873 24.4933C79.4859 23.2607 79.1353 21.773 79.1353 20.0303C79.1353 18.2876 79.4859 16.7999 80.1873 15.5673C80.8886 14.3346 81.8662 13.3889 83.1201 12.7301C84.3953 12.0712 85.8511 11.7418 87.4875 11.7418C89.1664 11.7418 90.5904 12.0712 91.7593 12.7301C92.9494 13.3676 93.8526 14.2602 94.4689 15.4079C95.0853 16.5343 95.3934 17.8307 95.3934 19.2971C95.3934 19.6796 95.3828 20.0622 95.3616 20.4447C95.3403 20.8273 95.3084 21.1461 95.2659 21.4011H82.6419V18.5001H92.875L90.2928 19.4884C90.2928 18.2132 90.0591 17.2356 89.5915 16.5555C89.1452 15.8754 88.4439 15.5354 87.4875 15.5354C86.8074 15.5354 86.223 15.6948 85.7342 16.0136C85.2666 16.3324 84.9053 16.8318 84.6503 17.5119C84.4165 18.192 84.2996 19.0633 84.2996 20.1259C84.2996 21.1673 84.4378 22.0174 84.714 22.6762C84.9903 23.3138 85.3835 23.7814 85.8936 24.0789C86.4036 24.3552 87.0199 24.4933 87.7425 24.4933C88.5501 24.4933 89.1877 24.3339 89.6553 24.0152C90.1441 23.6964 90.5054 23.2501 90.7391 22.6762L95.0746 24.1108C94.7771 25.0246 94.2564 25.8004 93.5126 26.4379C92.79 27.0543 91.9186 27.5218 90.8985 27.8406C89.8997 28.1594 88.8477 28.3188 87.7425 28.3188ZM105.12 28.3188C103.526 28.3188 102.038 28.0638 100.657 27.5537C99.2965 27.0224 98.1701 26.2679 97.2775 25.2903L99.8278 22.2937C100.359 22.9738 101.06 23.5476 101.932 24.0152C102.824 24.4615 103.813 24.6846 104.897 24.6846C105.555 24.6846 106.097 24.589 106.522 24.3977C106.947 24.2064 107.16 23.9089 107.16 23.5051C107.16 23.2076 107.054 22.9738 106.841 22.8038C106.629 22.6125 106.204 22.4531 105.566 22.3256L103.334 21.8793C101.337 21.4755 99.9128 20.8804 99.0627 20.0941C98.2339 19.2865 97.8195 18.2345 97.8195 16.9381C97.8195 16.0667 98.0851 15.2379 98.6164 14.4515C99.1477 13.6439 99.966 12.9957 101.071 12.5069C102.176 11.9969 103.59 11.7418 105.311 11.7418C106.926 11.7418 108.35 11.9756 109.583 12.4432C110.815 12.9107 111.793 13.5908 112.516 14.4834L109.933 17.4162C109.423 16.7787 108.765 16.2792 107.957 15.9179C107.149 15.5567 106.342 15.376 105.534 15.376C105.024 15.376 104.588 15.4291 104.227 15.5354C103.887 15.6204 103.632 15.7479 103.462 15.9179C103.292 16.088 103.207 16.3005 103.207 16.5555C103.207 16.8318 103.334 17.0762 103.59 17.2887C103.866 17.48 104.365 17.65 105.088 17.7988L107.989 18.3726C109.625 18.6701 110.805 19.2121 111.527 19.9984C112.25 20.7848 112.611 21.7305 112.611 22.8356C112.611 23.877 112.335 24.8121 111.782 25.641C111.23 26.4698 110.401 27.1286 109.296 27.6175C108.191 28.085 106.799 28.3188 105.12 28.3188ZM122.086 6.99189V22.3256C122.086 23.0907 122.266 23.6432 122.628 23.9833C123.01 24.3021 123.531 24.4615 124.19 24.4615C124.7 24.4615 125.135 24.4083 125.497 24.3021C125.879 24.1745 126.219 23.9939 126.517 23.7601L127.091 27.1074C126.559 27.4899 125.89 27.7875 125.082 28C124.275 28.2125 123.446 28.3188 122.596 28.3188C121.384 28.3188 120.332 28.1488 119.44 27.8087C118.568 27.4687 117.888 26.9267 117.399 26.1829C116.932 25.4391 116.688 24.4508 116.666 23.2182V8.49019L122.086 6.99189ZM126.836 12.0606V15.9179H113.925V12.0606H126.836ZM136.926 11.7418C138.605 11.7418 140.071 12.0712 141.325 12.7301C142.6 13.3676 143.589 14.3134 144.29 15.5673C145.013 16.7999 145.374 18.2876 145.374 20.0303C145.374 21.773 145.013 23.2713 144.29 24.5252C143.589 25.7579 142.6 26.7036 141.325 27.3624C140.071 28 138.605 28.3188 136.926 28.3188C135.29 28.3188 133.834 28 132.559 27.3624C131.283 26.7036 130.285 25.7579 129.562 24.5252C128.861 23.2713 128.51 21.773 128.51 20.0303C128.51 18.2876 128.861 16.7999 129.562 15.5673C130.285 14.3134 131.283 13.3676 132.559 12.7301C133.834 12.0712 135.29 11.7418 136.926 11.7418ZM136.926 15.5992C136.31 15.5992 135.778 15.7479 135.332 16.0455C134.886 16.343 134.546 16.8212 134.312 17.48C134.078 18.1388 133.961 18.9889 133.961 20.0303C133.961 21.0717 134.078 21.9218 134.312 22.5806C134.546 23.2182 134.886 23.6964 135.332 24.0152C135.778 24.3127 136.31 24.4615 136.926 24.4615C137.564 24.4615 138.106 24.3127 138.552 24.0152C138.998 23.6964 139.338 23.2182 139.572 22.5806C139.806 21.9218 139.923 21.0717 139.923 20.0303C139.923 18.9889 139.806 18.1388 139.572 17.48C139.338 16.8212 138.998 16.343 138.552 16.0455C138.106 15.7479 137.564 15.5992 136.926 15.5992Z" fill="#0A2640"/>
</g>
<defs>
<clipPath id="clip0_604_1550">
<rect width="146.382" height="42" fill="white" transform="translate(0.764648 -4)"/>
</clipPath>
<clipPath id="clip1_604_1550">
<rect width="32.745" height="34.8351" fill="white" transform="translate(0.573486 0.153809)"/>
</clipPath>
</defs>
</svg>
