<?xml version="1.0" standalone="no"?>
<!DOCTYPE svg PUBLIC "-//W3C//DTD SVG 20010904//EN"
 "http://www.w3.org/TR/2001/REC-SVG-20010904/DTD/svg10.dtd">
<svg version="1.0" xmlns="http://www.w3.org/2000/svg"
 width="512.000000pt" height="512.000000pt" viewBox="0 0 512.000000 512.000000"
 preserveAspectRatio="xMidYMid meet">
<metadata>
Created by potrace 1.14, written by Peter Selinger 2001-2017
</metadata>
<g transform="translate(0.000000,512.000000) scale(0.100000,-0.100000)"
fill="#000000" stroke="none">
<path d="M415 5110 c-197 -39 -362 -202 -404 -398 -8 -38 -11 -636 -10 -2160
0 -2255 -2 -2146 48 -2255 68 -147 216 -261 373 -287 92 -15 4220 -14 4290 1
193 41 354 201 396 394 8 35 11 669 11 2160 0 2289 3 2154 -54 2270 -48 98
-143 191 -242 236 -110 50 0 48 -2258 47 -1160 0 -2128 -4 -2150 -8z"/>
</g>
</svg>
