<svg width="112" height="38" fill="none" xmlns="http://www.w3.org/2000/svg"><g clip-path="url(#clip0_604_1550)" fill="#0A2640"><g clip-path="url(#clip1_604_1550)"><path d="M9.925 3.166a.619.619 0 01.264-.834 14.97 14.97 0 0114.225.354.619.619 0 01.225.848l-7.12 12.221a.617.617 0 01-.535.307h-.016a.622.622 0 01-.535-.334L9.925 3.166zm6.677 16.155l-6.51-12.563a.62.62 0 00-.833-.266 14.806 14.806 0 1013.62 26.294.62.62 0 00.264-.834l-6.541-12.63zm7.63 11.874l.05.1a.63.63 0 00.359.309c.063.02.13.03.198.024a.787.787 0 00.285-.061c.225-.112.444-.236.656-.372.63-.366 1.23-.78 1.796-1.239h-3.988l.644 1.239zm-1.288-2.477h5.982c.385-.387.74-.8 1.066-1.239h-7.693l.645 1.239zm-1.276-2.477h9.203c.254-.398.481-.812.681-1.24H21.024l.644 1.24zm-1.288-2.478h11.717c.164-.404.305-.818.421-1.239H19.735l.645 1.24zm-1.289-2.477h13.737c.074-.409.136-.818.173-1.239H18.46l.631 1.239zm6.64-15.657a.576.576 0 00-.471-.061.594.594 0 00-.384.284l-.335.57h2.391c-.386-.285-.787-.55-1.201-.793zm2.7 2.032h-4.608l-.718 1.238h6.503c-.367-.436-.76-.85-1.177-1.238zm2.105 2.477h-8.162l-.719 1.239h9.637c-.223-.43-.476-.844-.756-1.239zm1.35 2.477H20.938l-.718 1.239h12.15a11.64 11.64 0 00-.482-1.239zm.83 2.478H19.489l-.719 1.238h14.17c-.049-.417-.123-.83-.222-1.238zm.347 2.477H18.051l-.297.508a.6.6 0 00-.013.594l.075.137h15.272c.012-.124.012-.26.012-.384 0-.285-.012-.57-.037-.855z"/><path d="M9.64 5.88a.844.844 0 00-1.178-.346 15.708 15.708 0 0014.64 27.74.844.844 0 00.378-1.168l-6.92-13.113L9.64 5.88z"/></g><path d="M55.2 6.96c1.722 0 3.189.276 4.4.829 1.211.552 2.136 1.35 2.773 2.39.638 1.042.957 2.307.957 3.794 0 1.488-.319 2.752-.956 3.794-.638 1.041-1.563 1.838-2.774 2.39-1.211.553-2.678.83-4.4.83h-4.175V28h-5.483V6.96H55.2zm-.86 9.914c1.148 0 2.008-.233 2.582-.701.595-.489.893-1.222.893-2.2 0-.977-.298-1.7-.893-2.167-.574-.49-1.434-.734-2.582-.734h-3.315v5.802h3.315zM66.453 28V12.06h4.782l.223 3.444c.404-1.19.999-2.115 1.785-2.774.808-.659 1.828-.988 3.06-.988.404 0 .744.032 1.02.095.298.064.532.15.702.255l-.542 4.463a3.424 3.424 0 00-.829-.19 6.146 6.146 0 00-1.18-.096c-.637 0-1.232.138-1.785.414a3.27 3.27 0 00-1.338 1.243c-.32.532-.479 1.212-.479 2.04V28h-5.419zm21.29.319c-1.764 0-3.295-.33-4.591-.988a7.07 7.07 0 01-2.965-2.838c-.701-1.232-1.052-2.72-1.052-4.463 0-1.742.35-3.23 1.052-4.463a7.116 7.116 0 012.933-2.837c1.275-.659 2.731-.988 4.367-.988 1.68 0 3.103.33 4.272.988 1.19.638 2.094 1.53 2.71 2.678.616 1.126.924 2.423.924 3.89 0 .382-.01.764-.031 1.147a9.031 9.031 0 01-.096.956H82.642v-2.9h10.233l-2.582.987c0-1.275-.234-2.252-.702-2.933-.446-.68-1.147-1.02-2.103-1.02-.68 0-1.265.16-1.754.479-.467.318-.829.818-1.084 1.498-.234.68-.35 1.551-.35 2.614 0 1.041.138 1.891.414 2.55.276.638.67 1.105 1.18 1.403.51.276 1.126.414 1.849.414.807 0 1.445-.16 1.912-.478a2.82 2.82 0 001.084-1.339l4.336 1.435a5.09 5.09 0 01-1.562 2.327c-.723.616-1.594 1.084-2.615 1.403-.998.318-2.05.478-3.155.478zm17.377 0c-1.594 0-3.082-.255-4.463-.765-1.36-.532-2.487-1.286-3.38-2.264l2.55-2.996c.532.68 1.233 1.254 2.105 1.721.892.447 1.881.67 2.965.67.658 0 1.2-.096 1.625-.287.425-.192.638-.49.638-.893 0-.297-.106-.531-.319-.701-.212-.191-.637-.35-1.275-.478l-2.232-.447c-1.997-.404-3.421-.999-4.271-1.785-.83-.808-1.243-1.86-1.243-3.156 0-.871.265-1.7.796-2.486.532-.808 1.35-1.456 2.455-1.945 1.105-.51 2.519-.765 4.24-.765 1.615 0 3.039.234 4.272.701 1.232.468 2.21 1.148 2.933 2.04l-2.583 2.933c-.51-.637-1.168-1.137-1.976-1.498s-1.615-.542-2.423-.542c-.51 0-.946.053-1.307.16-.34.084-.595.212-.765.382a.865.865 0 00-.255.637c0 .277.127.521.383.734.276.191.775.361 1.498.51l2.901.574c1.636.297 2.816.84 3.538 1.625.723.787 1.084 1.732 1.084 2.838 0 1.041-.276 1.976-.829 2.805-.552.829-1.381 1.488-2.486 1.977-1.105.467-2.497.7-4.176.7zm16.966-21.327v15.334c0 .765.18 1.317.542 1.657.382.32.903.479 1.562.479.51 0 .945-.054 1.307-.16a3.363 3.363 0 001.02-.542l.574 3.347c-.532.383-1.201.68-2.009.893a9.724 9.724 0 01-2.486.319c-1.212 0-2.264-.17-3.156-.51-.872-.34-1.552-.882-2.041-1.626-.467-.744-.711-1.732-.733-2.965V8.49l5.42-1.498zm4.75 5.069v3.857h-12.911V12.06h12.911zm10.09-.32c1.679 0 3.145.33 4.399.99a6.823 6.823 0 012.965 2.836c.723 1.233 1.084 2.72 1.084 4.463 0 1.743-.361 3.241-1.084 4.495a7.07 7.07 0 01-2.965 2.837c-1.254.638-2.72.957-4.399.957-1.636 0-3.092-.319-4.367-.957a7.273 7.273 0 01-2.997-2.837c-.701-1.254-1.052-2.752-1.052-4.495 0-1.742.351-3.23 1.052-4.463a7.013 7.013 0 012.997-2.837c1.275-.659 2.731-.988 4.367-.988zm0 3.858c-.616 0-1.148.149-1.594.447-.446.297-.786.775-1.02 1.434-.234.659-.351 1.509-.351 2.55 0 1.042.117 1.892.351 2.55.234.638.574 1.116 1.02 1.435.446.298.978.447 1.594.447.638 0 1.18-.15 1.626-.447.446-.319.786-.797 1.02-1.434.234-.66.351-1.51.351-2.55 0-1.042-.117-1.892-.351-2.551-.234-.659-.574-1.137-1.02-1.434-.446-.298-.988-.447-1.626-.447z"/></g><defs><clipPath id="clip0_604_1550"><path fill="#fff" transform="translate(.765 -4)" d="M0 0h146.382v42H0z"/></clipPath><clipPath id="clip1_604_1550"><path fill="#fff" transform="translate(.573 .154)" d="M0 0h32.745v34.835H0z"/></clipPath></defs></svg>